<svg width="780" height="780" xmlns="http://www.w3.org/2000/svg" p-id="4413" version="1.1" class="icon" t="1651801098405">

 <g>
  <title _mstTextHash="5637814" _mstHash="102403">第 1 层</title>
  <path id="svg_1" data-spm-anchor-id="a313x.7781069.0.i36" p-id="4414" fill="#F59739" d="m541.22364,385.33182a426.56,426.56 0 0 0 52.33,-70.33c60.97,-101.63 30.74,-234.82 30.74,-234.82c-124,-29.27 -242.51,6.85 -327.88,99.32c-26.32,-6.42 -71.69,-1.74 -116.91,39.19l56,51.35a481.63,481.63 0 0 0 -41.8,128.3s-11.71,70.19 -3.45,119.32c9.75,78 45,154.76 117.88,217.7c0,0 46.61,-108.7 166.5,-100.57c-85.08,-56.41 -201.32,-11.62 -168,-80.82c19.32,-40.08 77.36,-55.32 143.15,-95"/>
  <path id="svg_2" class="selected" data-spm-anchor-id="a313x.7781069.0.i37" p-id="4415" fill="#7cba59" d="m541.21364,385.31182s31.31,60.86 12.58,93.38c-5.28,9.16 -25.2,-5.32 -49,-2.86c-27,2.79 -46.55,19.53 -51.44,6.14c-10.56,-28.92 3.22,-74.2 30.19,-84.14"/>
  <path id="svg_3" p-id="4416" fill="#2A2B2B" d="m541.82354,119.41184m-3.7554,21.1898a21.52,21.52 0 1 0 7.5108,-42.37959a21.52,21.52 0 1 0 -7.5108,42.37959z"/>
  <path id="svg_4" data-spm-anchor-id="a313x.7781069.0.i35" p-id="4417" fill="#17abe3" d="m151.63364,474.11182l0.08,0a13.63,13.63 0 0 0 13.65,-13.55c0,-7 0.26,-14.12 0.66,-21.19a13.62,13.62 0 1 0 -27.21,-1.52c-0.42,7.52 -0.66,15.11 -0.7,22.56a13.62,13.62 0 0 0 13.52,13.7z"/>
  <path id="svg_5" data-spm-anchor-id="a313x.7781069.0.i33" p-id="4418" fill="#707070" d="m609.36364,289.11182a13.54,13.54 0 0 0 3.41,-6.74c26.59,-54.39 32.59,-113.43 32.59,-155.38c0.07,-50.63 -8.09,-87.14 -8.43,-88.67a13.63,13.63 0 0 0 -10.16,-10.24c-69,-16.28 -136.2,-14.75 -199.81,4.55c-61.17,18.55 -115.71,52.55 -162.18,101.16c-16.71,-2.62 -35.67,-1.37 -54.28,3.66c-26.9,7.27 -52.6,21.87 -76.38,43.39a13.62,13.62 0 0 0 -0.07,20.14l53,48.65a528.69,528.69 0 0 0 -41.94,133a13.62,13.62 0 1 0 26.85,4.65a510,510 0 0 1 44,-134.93a13.62,13.62 0 0 0 -3,-16l-49,-45c39.19,-30.37 77.92,-35.52 102.4,-29.55a13.63,13.63 0 0 0 13.24,-4c28,-30.28 59.11,-54.73 93.09,-73.15c8.71,34.21 37.28,78.79 76.85,119.21c41.22,42.22 87.16,72.32 128.76,84.88a449.94,449.94 0 0 1 -54.35,72.92q-0.42,0.46 -0.8,1l-0.11,0.15q-0.33,0.44 -0.61,0.91l-0.17,0.28c-0.16,0.27 -0.31,0.55 -0.45,0.83l-0.2,0.4c-0.11,0.25 -0.22,0.5 -0.32,0.76s-0.13,0.32 -0.18,0.49s-0.16,0.49 -0.23,0.74s-0.1,0.34 -0.14,0.52s-0.11,0.52 -0.16,0.78s-0.06,0.33 -0.08,0.49s-0.06,0.56 -0.09,0.84s0,0.3 0,0.45l0,1.31c0,0.15 0,0.56 0.07,0.84s0,0.32 0.06,0.49s0.09,0.5 0.14,0.76s0.08,0.39 0.13,0.59s0.11,0.42 0.18,0.62s0.15,0.48 0.24,0.72l0.19,0.48q0.17,0.42 0.37,0.82l0.09,0.2a214.78,214.78 0 0 1 13.48,35.16c5.88,20.83 6.63,37.54 2.25,48.74c-2.17,-0.43 -4.93,-1.13 -7.19,-1.7c-9.56,-2.42 -22.65,-5.73 -37.23,-4.22c-13.18,1.36 -24.49,5.28 -33.57,8.44c-2.85,1 -6.36,2.21 -9.06,3c-3,-11.6 -2.1,-26.47 2.48,-40c5,-14.86 13.76,-25.83 23.32,-29.35a13.62,13.62 0 1 0 -9.43,-25.56c-17.44,6.43 -31.91,23.25 -39.69,46.15a107,107 0 0 0 -5.22,24.68c-19.91,11.66 -39.41,21.5 -56.8,30.27c-45.05,22.72 -80.64,40.67 -96.92,74.44c-8.77,18.19 -10,32.55 -3.75,43.89c10.45,19 37,22.09 70.71,26c22.22,2.58 47.79,5.56 73,13.32c-42.81,9 -73.91,31.27 -94.31,51.3a226.87,226.87 0 0 0 -35.66,45.49c-30.42,-28.61 -55,-60.83 -73.3,-96a351.79,351.79 0 0 1 -36.63,-119a13.62,13.62 0 1 0 -27,3.38a378.91,378.91 0 0 0 39.5,128.25c22.35,43 53.45,81.87 92.44,115.52a13.62,13.62 0 0 0 21.42,-4.94c0.12,-0.27 11.83,-27.18 38.38,-53.25c35.29,-34.65 78.36,-50.51 128,-47.16a13.62,13.62 0 0 0 8.45,-24.95c-43.53,-28.85 -94.19,-34.73 -131.19,-39.03c-20.63,-2.4 -46.3,-5.38 -50,-12.08c-1.21,-2.2 -0.68,-8.33 4.43,-18.93c12.26,-25.44 44.2,-41.55 84.64,-61.94c14.36,-7.24 30.14,-15.2 46.55,-24.37a70.36,70.36 0 0 0 2.2,7.27c3.34,9.16 11.07,14.49 20.84,14.49l1.6,0c6.14,-0.36 12.5,-2.57 19.88,-5.12c8.16,-2.83 17.4,-6 27.44,-7.07c9.78,-1 19.32,1.4 27.74,3.53c5.79,1.46 10.79,2.73 15.7,2.92c12,0.46 17.62,-6.14 19.91,-10.12c10.3,-17.88 11,-42.82 2.09,-74.13a244.13,244.13 0 0 0 -11.31,-31.1a482.08,482.08 0 0 0 52,-71.37c2.64,-4.27 5.02,-8.55 7.29,-12.87zm-140.4,-104.25c-38.42,-39.25 -66.13,-83.15 -71.11,-112.47a334.88,334.88 0 0 1 37.08,-13.68c56.33,-17.09 115.86,-19.11 177.08,-6a440.91,440.91 0 0 1 6.16,75c-0.11,37.14 -5.21,88.66 -26.91,136.48c-38.39,-10.13 -82.32,-38.49 -122.3,-79.33z"/>
  <path id="svg_6" data-spm-anchor-id="a313x.7781069.0.i34" p-id="4419" fill="#17abe3" d="m235.16364,419.76182a13.62,13.62 0 0 0 19.26,-0.32l156.52,-161.72a13.62,13.62 0 0 0 -19.58,-18.95l-156.52,161.73a13.62,13.62 0 0 0 0.32,19.26zm123.69,-24.98a13.62,13.62 0 0 0 19.26,-0.32l89.25,-92.22a13.62,13.62 0 1 0 -19.58,-18.95l-89.25,92.22a13.62,13.62 0 0 0 0.32,19.27zm-87.05,-94.8l93.82,-97a13.62,13.62 0 1 0 -19.58,-18.95l-93.82,97a13.62,13.62 0 1 0 19.58,18.95z"/>
 </g>
</svg>